<?xml version="1.0" encoding="UTF-8" standalone="no"?>
<svg
   xmlns:dc="http://purl.org/dc/elements/1.1/"
   xmlns:cc="http://creativecommons.org/ns#"
   xmlns:rdf="http://www.w3.org/1999/02/22-rdf-syntax-ns#"
   xmlns:svg="http://www.w3.org/2000/svg"
   xmlns="http://www.w3.org/2000/svg"
   xmlns:sodipodi="http://sodipodi.sourceforge.net/DTD/sodipodi-0.dtd"
   xmlns:inkscape="http://www.inkscape.org/namespaces/inkscape"
   width="922"
   height="496"
   version="1.1"
   id="svg921"
   sodipodi:docname="italy.svg"
   inkscape:version="0.92.2 (5c3e80d, 2017-08-06)">
  <metadata
     id="metadata927">
    <rdf:RDF>
      <cc:Work
         rdf:about="">
        <dc:format>image/svg+xml</dc:format>
        <dc:type
           rdf:resource="http://purl.org/dc/dcmitype/StillImage" />
        <dc:title></dc:title>
      </cc:Work>
    </rdf:RDF>
  </metadata>
  <defs
     id="defs925" />
  <sodipodi:namedview
     pagecolor="#ffffff"
     bordercolor="#666666"
     borderopacity="1"
     objecttolerance="10"
     gridtolerance="10"
     guidetolerance="10"
     inkscape:pageopacity="0"
     inkscape:pageshadow="2"
     inkscape:window-width="2560"
     inkscape:window-height="1315"
     id="namedview923"
     showgrid="false"
     inkscape:zoom="2.0927419"
     inkscape:cx="313.69653"
     inkscape:cy="383.55325"
     inkscape:window-x="-13"
     inkscape:window-y="-13"
     inkscape:window-maximized="1"
     inkscape:current-layer="svg921" />
  <path
     style="fill:#6b5d2e;stroke:none"
     d="m 0,0 v 496 h 13 c 0.1887,-4.391 2.7951,-5.06 4.9769,-8.455 2.2441,-3.493 1.8378,-7.166 5.1319,-10.335 5.0309,-4.841 12.4522,-6.575 17.2037,-11.808 5.0521,-5.564 3.6334,-12.394 6.7153,-18.387 3.4967,-6.801 11.3634,-10.968 15.1728,-18.015 2.7272,-5.045 2.7647,-11.179 5.6567,-16 5.5515,-9.254 15.0885,-17.138 18.0841,-28 2.1175,-7.678 2.177027,-14.63052 3.301027,-22.47952 0.915,-6.39 3.221873,-13.84248 4.178073,-20.52048 0.736,-5.14 -0.3746,-11.145 1.5888,-16 1.2363,-3.057 3.7807,-5.152 5.3137,-8 1.537,-2.855 0.786,-6.138 2.419,-9 4.782,-8.379 11.941,-15.227 16.338,-24 2.907,-5.799 0.523,-11.229 4.515,-16.999 4.541,-6.564 11.655,-9.845 16.405,-16.001 -5.649,-1.587 -12.833,-0.786 -17.999,-3.318 -3.86,-1.891 -11.526,-10.131 -11.699,-14.686 -0.122,-3.201 2.874,-7.112 4.119,-9.996 2.343,-5.431 5.328,-10.583 7.625,-16 1.971,-4.646 2.976,-8.985 6.422,-12.907 C 133.043,189.887 139.145,187.687 142,181 130.639,180.505 121.64025,174.38023 118.72925,162.32423 117.26625,156.26223 116.378,150.933 113.751,145 108.337,132.775 97.6155,124.666 94.5285,111 91.8239,99.0264 100.675,88.6377 100.802,77 100.895,68.5837 95.264997,61.090829 92.728597,53.324229 90.883197,47.673629 91.5982,43.5925 90.4784,38 87.3957,22.6042 71.3407,15.9941 71,0 Z"
     id="path891"
     inkscape:connector-curvature="0"
     sodipodi:nodetypes="cccccccccscccccccccccccccccccccc" />
  <path
     style="fill:#618e63;stroke:none"
     d="m 71,0 c 0.0395,4.71008 0.4269,9.79315 3.0856,13.8712 1.6624,2.5497 4.4349,4.0099 6.436,6.2576 C 84.727,24.8526 89.44,32.6791 90.439,39 c 0.9585,6.0642 -2.0289,10.7032 0.2709,17 2.5022,6.8512 10.0041,13.4952 9.8961,21 -0.175,12.1011 -8.9231,22.4058 -6.0775,35 3.0879,13.666 13.8085,21.775 19.2225,34 4.997,11.285 0.07,23.206 12.264,31.411 5.866,3.948 20.363,6.119 26.985,3.51 6.015,-2.369 10.715,-7.476 17,-9.283 8.352,-2.401 17.50153,1.95891 22.82053,-6.85109 5.214,-8.636 -0.99853,-25.55491 8.28447,-31.55891 8.768,-5.671 20.84661,-2.57989 30.08961,-5.46289 5.533,-1.726 9.7033,-5.72824 13.7673,-9.50124 4.646,-4.314 10.7236,-9.42095 15.4486,-13.72295 C 265.72351,99.704921 266.744,98.0977 267,90 c 3.661,-0.506 9.068,-1.3574 9.398,-6.0193 0.164,-2.3201 -1.175,-4.663 -1.385,-6.9807 -0.349,-3.8531 0.372,-7.6072 -2.447,-10.7716 -5.798,-6.5109 -9.631,2.2339 -15.527,0.3997 -4.163,-1.2955 -5.813,-6.6207 -9.213,-9.0247 -3.233,-2.2859 -7.264,-1.0487 -10.771,-2.4969 -4.29,-1.7715 -6.155,-7.6768 -9.012,-11.1027 -1.281,-1.5368 -3.385,-3.4042 -3.443,-5.5786 -0.135,-5.14 10.411,-9.2443 13.076,-13.4298 2.248,-3.531 5.031,-7.6819 5.165,-11.9954 C 242.976,8.66278 241.049,4.43655 241,0 Z"
     id="path893"
     inkscape:connector-curvature="0"
     sodipodi:nodetypes="ccccccccccccccccccccccccccccc" />
  <path
     style="fill:#c86b26;stroke:none"
     d="m 608,113 c 3.364,-6.99 0.557,-10.344 -1.579,-17 -1.791,-5.578 0.303,-14.7882 -8.425,-14.8411 -1.684,-0.0102 -3.341,0.4503 -4.995,0.6991 -1.858,0.2795 -3.963,0.1989 -5.626,1.1937 -3.225,1.9284 -7.59,8.0151 -6.525,11.9089 0.588,2.1471 4.06,4.4565 3.523,6.7674 -0.594,2.555 -8.592,0.37 -10.935,2.71 -2.91,2.904 -1.189,6.068 -1.496,9.56 -0.207,2.362 -1.39,4.7 -1.942,7.002 -4.974,-2.721 -8.66,-3.427 -10,3 3.947,2.894 9.896,6.534 9.836,12.001 -0.041,3.814 -2.912,7.157 -2.302,10.999 0.777,4.902 4.588,8.919 5.466,14 5.746,0.119 12.03824,3.23048 17.76024,3.48148 11.44,0.501 23.05276,-2.70748 34.23976,-4.95948 6.975,-1.405 14.373,-7.121 19,1.478 5.227,-2.238 12.534,-3.891 16.867,-7.558 3.967,-3.358 4.463,-9.015 10.138,-10.418 7.322,-1.811 14.853,1.684 21.995,2.422 4.161,0.43 8.083,-1.276 12,-2.407 4.001,-1.156 6.729,-1.333 9,-5.039 -1.478,-0.986 -1.203,-1 -3,-1 1.457,-5.299 1.714,-12.415 2,-18 3.529,0.7 6.498,3.132 10,3.643 4.891,0.713 8.752,-3.542 13,-5.172 2.717,-1.043 5.972,-0.996 8.211,-3.06 4.07,-3.752 3.561,-12.118 9.804,-13.599 7.603,-1.8027 12.849,4.755 19,7.134 3.743,1.447 7.184,0.148 10.985,-0.161 7.358,-0.6 14.328,-0.619 20.423,-5.754 4.796,-4.0405 -1.669,-8.9176 -4.195,-12.031 -6.21,-7.6542 -7.204,-19.8658 -19.228,-21.8256 -6.187,-1.0085 -12.739,-1.6735 -19,-1.0008 -3.676,0.395 -7.288,2.2976 -10.961,2.3542 -3.44,0.0529 -5.625,-3.0609 -9.054,-3.2068 -4.755,-0.2025 -9.405,2.4252 -13.985,3.3032 -2.974,0.5701 -6.11,0.0748 -9,1.1034 -7.682,2.7344 -14.031,8.5667 -22,11.3357 -6.89,2.394 -15.727,-0.1715 -22,2.9645 -3.884,1.9417 -6.539,5.8589 -10,8.4143 -4.43,3.2705 -10.196,6.4584 -15.004,9.1909 -5.464,3.107 -12.159,2.534 -17.995,4.916 -3.871,1.579 -6.318,5.184 -10.09,6.709 -4.555,1.843 -9.524,0.111 -13.911,-1.258 z"
     id="path897"
     inkscape:connector-curvature="0"
     sodipodi:nodetypes="ccccccccccccccccccccccccccccccccccccccccccccc" />
  <path
     style="fill:#8c2618;stroke:none"
     d="m 339,172 c 2.268,-4.497 5.519,-4.622 10,-6 -6.448,-11.781 3.14,-22.912 2.917,-34.999 -0.122,-6.585 -6.644,-10.138 -8.917,-16.001 -4.55,0.702 -6.958,3.72 -11,5.567 -6.22,2.843 -14.975,1.404 -21,-1.32 -10.875,-4.916 -20.153,-13.37 -31,-18.57 -3.15,-1.5107 -9.351,-4.8592 -12.871,-3.9448 -2.437,0.6331 -4.122,3.3568 -6.219,4.6748 -10.802,6.792 -18.253,19.45 -29.91,25.14 -9.343,4.561 -24.32,-0.595 -32.347,8.011 -3.465,3.714 -3.306,9.724 -3.819,14.442 -0.743,6.836 -2.303,13.975 -8.008,18.487 -5.559,4.396 -12.646,2.281 -18.826,4.482 -5.455,1.943 -9.758,6.127 -15,8.484 -3.267,1.469 -8.68837,-0.37683 -11.81937,1.10617 -4.378,2.074 -8.36963,8.32883 -11.87963,11.76683 -4.36,4.269 -5.231,9.404 -7.7,14.674 -2.956,6.31 -6.30336,11.39746 -9.39336,17.64846 -1.188,2.405 -2.94564,6.48354 -2.38064,9.33654 0.55,2.776 1.91199,4.924 3.45199,7.184 2.235,3.278 5.70201,6.103 9.72101,7.258 4.151,1.194 12.2107,4.49337 16.4087,3.70937 6.043,-1.129 12.7713,-7.09837 18.5913,-9.19737 6.254,-2.255 12.964,-3.631 19,-6.481 5.398,-2.55 10.089,-5.958 16,-7.415 6.869,-1.692 14.147,-0.656 21,-2.535 6.196,-1.697 11.751,-5.739 18,-7.245 6.657,-1.604 12.928,0.992 18.981,-3.256 4.918,-3.451 6.719,-9.242 10.061,-14.007 3.985,-5.68 8.695,-9.261 13.919,-13.63 2.363,-1.976 4.352,-4.925 7.129,-6.328 3.613,-1.826 8.176,0.184 11.91,0.669 6.849,0.889 15.186,1 22,-0.154 3.455,-0.585 9.309,-2.011 10.678,-5.767 0.952,-2.611 -1.692,-5.909 1.528,-7.669 3.062,-1.674 7.766,1.053 10.794,1.879 z"
     id="path899"
     inkscape:connector-curvature="0"
     sodipodi:nodetypes="ccccccccccccccccccccccccccccccccccccc" />
  <path
     style="fill:#7e4a61;stroke:none"
     d="m 349,166 c -2.339,0.565 -5.675,0.621 -7.677,2.024 -6.893,4.828 4.648,6.965 7.677,6.976 1.071,6.777 8.2563,11.58314 13.5763,14.88114 7.216,4.474 14.8817,7.13086 21.4187,12.58386 2.467,2.057 3.18757,5.32966 3.99757,8.54866 0.786,3.122 1.28743,5.70734 3.61043,8.34934 2.522,2.867 9.924,8.316 13.567,9.319 3.465,0.954 7.287,0.062 10.83,0.837 3.74,0.817 6.502,3.153 10,4.419 2.292,0.83 4.676,0.223 7,0.804 3.552,0.887 7.095,5.523 10.956,4.083 4.756,-1.774 4.163,-7.125 6.068,-10.825 1.87,-3.634 5.584,-6.702 8.976,-8.867 3.056,-1.951 6.972,-2.808 9.491,-5.527 2.014,-2.173 2.7,-5.193 4.787,-7.343 4.41,-4.543 8.969,-5.568 10.722,-12.263 10.034,2.655 9.74927,4.3296 19.51927,1.7366 3.835,-1.017 14.99573,-5.4776 18.37273,-7.6706 3.261,-2.119 3.805,-6.899 7.333,-8.463 6.97,-3.09 14.93522,1.87389 22.29122,-1.14711 4.245,-1.743 7.83878,-7.88589 11.52278,-10.55089 3.109,-2.249 10.15199,-1.31966 10.97599,-5.60066 0.952,-4.944 -5.21399,-10.83034 -6.07799,-15.30434 -0.598,-3.094 1.418,-5.998 1.849,-9 0.876,-6.098 -2.984,-10.2 -7.956,-13.262 -9.908,-6.102 -15.456,9 -23.826,9.796 -3.866,0.368 -5.847,-3.671 -9.093,-4.931 -3.103,-1.206 -6.684,-0.305 -9.911,-0.746 -4.234,-0.58 -7.581,-2.82 -12,-2.849 -7.341,-0.046 -14.16,2.995 -21,5.351 -2.364,0.814 -5.34,2.837 -7.91,2.542 -4.081,-0.468 -7.154,-6.201 -11.09,-7.842 -11.215,-4.677 -22.823,-8.344 -34,-12.924 -5.587,-2.289 -10.228,-6.43 -16,-8.23 -4.696,-1.464 -11.238,-1.546 -16,-0.292 -5.452,1.435 -8.264,3.585 -14.039,2.492 -11.554,-2.186 -20.894,0.887 -31.961,3.906 -2.932,0.8 -9.345,1.223 -10.839,4.303 -1.324,2.731 1.313,5.551 2.984,7.401 2.95,3.264 5.016,5.637 4.55,10.285 -1.049,10.467 -9.702,23.249 -2.695,33 z"
     id="path901"
     inkscape:connector-curvature="0"
     sodipodi:nodetypes="cccccccccccccccccccccccccccccccccccccccccc" />
  <path
     style="fill:#534a77;stroke:none"
     d="m 713,139 c -2.434,2.495 -4.673,2.857 -8,3.755 -3.615,0.977 -7.183,2.606 -11,2.481 -7.33,-0.239 -14.493,-3.466 -21.999,-2.726 -7.015,0.692 -7.886,8.101 -13.019,11.636 -3.707,2.552 -11.7489,2.84636 -14.8669,6.19636 -2.116,2.274 1.4029,5.03064 2.1939,7.65664 1.91,6.333 6.761,10.008 6.673,17.001 -0.115,9.049 -7.549,13.453 -11.323,21 -3.097,6.193 -2.553,13.321 -6.659,19 4.229,2.267 9.372,3.675 10,9 3.54,3.36 2.772,6.589 4,11 2.941,-0.871 4.838,-1.829 7,-4 1.856,1.048 2.944,1.513 5,2 0.868,-2.355 1.574,-4.531 2,-7 1.69,0.808 3.104,1.591 5.025,1.693 14.76,0.78 6.907,-19.417 19.976,-19.41 7.659,0.005 12.625,7.461 18.999,10.678 4.584,2.313 10.035,6.495 15,7.57 2.659,0.576 5.325,-0.412 8,-0.063 4.317,0.564 10.219,2.648 13.995,4.81 5.745,3.289 6.379,10.331 12.02,13.632 7.749,4.535 18.785,-3.683 23.763,7.109 1.884,4.085 -1.087,9.147 -2.466,12.981 -1.982,5.513 -3.187,12.149 -3.312,18 4.857,0.542 7.575,2.917 11,6.285 1.896,1.863 3.911,4.759 6.754,5.125 3.123,0.402 6.556,-2.507 9.245,-3.742 6.163,-2.829 10.165,-4.845 17.001,-3.668 0.447,-5.477 3.054,-10.613 3.44,-16 0.396,-5.533 -2.467,-16.134 -5.428,-20.811 -4.188,-6.614 -15.253,-4.533 -16.578,-14.19 -1.517,-11.047 2.371,-23.03 2.422,-33.999 0.016,-3.522 -1.848,-6.554 -2.208,-10 -0.396,-3.793 1.34,-8.14 -0.251,-11.786 -1.459,-3.343 -5.388,-3.774 -8.188,-5.484 -1.95,-1.191 -3.279,-3.247 -5.418,-4.132 -8.322,-3.444 -16.955,-0.982 -22.791,5.402 -7.663,-4.988 -12.546,1.61 -18,7 -3.629,-2.224 -11.816,-2.39 -13.802,-6.279 -1.262,-2.47 -0.171,-6.012 -0.72,-8.721 -1.027,-5.078 -3.983,-7.259 -6.47,-11.374 -1.906,-3.153 -1.129,-5.339 -5.008,-6.626 1.157,-6.353 -1.265,-8.356 -3.417,-13.999 -0.966,-2.536 -1.028,-4.729 -2.583,-7.001 z"
     id="path903"
     inkscape:connector-curvature="0"
     sodipodi:nodetypes="ccccccccccccccccccccccccccccccccccccccccccccc" />
  <path
     style="fill:#ce9d34;stroke:none"
     d="m 484,194 c -2.478,6.297 -7.381,7.55 -11.491,12.263 -2.528,2.9 -3.195,6.464 -6.564,8.743 -5.636,3.815 -12.505,5.381 -15.921,11.995 -1.137,2.202 -8.54248,8.57021 -9.63148,10.80021 -2.459,5.039 2.27948,4.33379 1.78148,10.19879 -0.73,8.589 4.429,15.999 -3.174,23 v 2 c 5.85,3.558 12.39,3.848 19,5.095 10.745,2.026 20.113,6.093 31,1.695 4.316,-1.743 9.148,-4.529 12.675,-7.575 2.181,-1.884 3.731,-5.103 6.418,-6.313 3.899,-1.756 8.986,2.819 12.903,3.38 8.457,1.212 9.955,-10.401 10.004,-16.282 11.353,-2.259 15.084,-15.992 27,-15.992 6.68,0 10.056,4.137 16,6.138 3.913,1.317 8.098,0.579 11.985,2.137 5.168,2.071 7.996,5.695 14,3.723 4.675,-1.535 6.486,-5.41 9.529,-8.878 3.221,-3.672 6.717,-7.374 10.166,-10.837 1.896,-1.904 3.584,-4.813 6.363,-5.479 3.051,-0.73 7.048,1.346 9.957,2.188 0,-2.226 1.142,-1.959 1.833,-4 1.786,-5.273 1.265,-10.904 4.167,-16 2.579,-4.528 6.899,-7.646 9.5,-12 2.195,-3.676 1.96,-9.856 1.5,-14 -0.448,-4.032 -3.932,-5.521 -5.5,-9 -1.663,-3.691 -1.426,-10.871 -4.667,-13.5 -5.584,-4.53 -11.399,0.082 -16.833,1.667 -3.389,0.988 -6.561,0.499 -10,0.833 -4.748,0.462 -9.277,2.541 -14,3 -6.314,0.614 -12.817,-0.141 -19,-1 -3.053,-0.424 -6.734,-1.9 -9.833,-0.833 -3.945,1.358 -11.02,5.673 -13.834,8.833 -2.08,2.336 -3.445,5.993 -6.333,7.5 -7.262,3.789 -17.56,-1.14 -24.833,1.667 -3.264,1.259 -3.495,7.316 -7.167,9.333 -4.023,2.21 -9.616,2.615 -14,3.833 -4.886,1.357 -9.782,4.247 -15,3.667 -2.826,-0.314 -5.13,-1.773 -8,-2 z"
     id="path905"
     inkscape:connector-curvature="0"
     sodipodi:nodetypes="ccccccccccccccsccccccccccccccccccccccccc" />
  <path
     style="fill:#184c5a;stroke:none"
     d="m 240,220 c 1.986,8.364 -2.16,12.363 -4.022,20 -1.276,5.231 -0.106,10.928 -1.832,15.999 -1.175,3.452 -7.747,7.519 -7.225,10.907 0.374,2.428 3.132,2.805 5.084,3.054 5.005,0.638 10.358,2.293 14.98,4.403 7.989,3.648 10.45,13.448 18.03,17.323 8.238,4.212 16.79,-0.558 24.966,2.118 6.365,2.083 3.68,13.469 11.005,12.73 4.899,-0.494 6.054,-7.036 8.652,-10.249 4.96,-6.131 10.593,-9.124 18.362,-9.285 1.718,10.77 12.212,0.887 19,1.704 4.297,0.518 7.566,3.819 12,4.186 10.454,0.866 19.884,-7.631 30,-9.333 5.701,-0.959 14.23,-0.15 20,0.652 2.668,0.371 5.271,1.696 8,1.539 3.462,-0.198 6.098,-2.749 9,-4.35 8.325,-4.592 16.775,-8.671 17.801,-19.398 0.336,-3.518 -0.993,-6.588 -1.461,-10 -0.509,-3.705 1.603,-8.167 -0.372,-11.56 -3.526,-6.062 -6.71692,-5.89318 -12.26492,-7.62718 C 425.48708,231.49582 419.56,229.739 415,229.184 c -3.464,-0.421 -7.539,0.544 -10.715,-1.208 -3.496,-1.928 -11.242,-6.772 -13.257,-10.189 -2.965,-5.026 -0.143,-9.854 -5.087,-14.487 -4.693,-4.398 -10.587,-6.799 -15.851,-10.332 -2.851,-1.913 -5.131,-4.418 -8.105,-6.186 C 356.818,183.708 350.758,181.117 349,175 c -6.589,-0.077 -14.752,-7.714 -20.847,-5.356 -3.978,1.538 -1.114,5.306 -2.3,8.146 -1.787,4.277 -8.818,5.629 -12.853,6.039 -6.056,0.616 -12.985,0.669 -19,-0.268 -4.006,-0.624 -8.969,-2.626 -12.83,-0.533 -2.4,1.3 -4.165,3.762 -6.209,5.53 -5.094,4.404 -9.974,7.822 -13.919,13.442 -6.043,8.61 -9.011,17.441 -21.042,18 z"
     id="path907"
     inkscape:connector-curvature="0"
     sodipodi:nodetypes="cccccccccccccccccccccccccccccccccccc" />
  <path
     style="fill:#98952c;stroke:none"
     d="M 240.66982,217.42271 C 232.07782,217.26671 220.141,225.996 212,227.741 c -6.6,1.414 -13.458,0.69 -20,2.302 -6.607,1.628 -11.783,5.829 -18,8.247 -9.848,3.831 -20.653,5.927 -30,10.985 -5.368,2.904 -11.334,8.013 -15.816,12.19 -3.131,2.918 -6.69,7.31 -7.75,11.535 -0.942,3.752 0.328,7.34 -1.389,11 -4.18,8.905 -11.403,15.677 -16.317,24 -1.684,2.853 -1.186,6.105 -2.601,9 -1.5666,3.206 -4.3782,5.503 -5.4742,9 -2.003,6.391 -1.994045,14.47519 -3.163945,21.17919 -0.8621,4.94 -3.003055,8.87081 -3.431755,13.82081 -0.6646,7.673 0.0761,16.654 -2.4005,24 -3.0969,9.186 -10.4967,17.572 -16.3781,25 -4.4911,5.672 -4.3319,13.777 -8.2299,20 -3.7415,5.973 -10.8591,10.012 -14.0208,16.039 -2.9564,5.636 -1.9816,12.12 -6.0741,17.752 -4.6399,6.385 -13.4159,7.871 -18.7253,13.419 -2.7676,2.892 -2.3324,6.365 -4.2515,9.531 -1.5582,2.57 -9.16083,7.868 -1.9175,9.111 C 24.8744,497.365 35.0545,496 44,496 h 57 c 6.333,0 12.667,0.043 19,-10e-4 2.807,-0.019 6.161,0.232 8.012,-2.317 2.559,-3.524 2.349,-9.548 3.162,-13.682 0.883,-4.494 3.791,-8.292 3.613,-13 -0.217,-5.738 -2.482,-10.531 -3.513,-16 -0.681,-3.614 -0.397,-7.35 -1.078,-11 -0.924,-4.955 -2.217,-10.969 -0.762,-15.956 2.101,-7.206 11.707,-4.631 16.132,-9.347 2.498,-2.662 2.324,-6.328 2.872,-9.697 0.99,-6.082 4.091,-11.89 4.508,-18 0.601,-8.804 -4.158,-15.71 -4.799,-24 -0.339,-4.391 3.818,-7.531 3.686,-12 -0.114,-3.887 -3.606,-6.362 -3.927,-10 -0.408,-4.617 5.512,-7.268 5.653,-12 0.181,-6.122 -7.158,-11.541 -4.107,-17.816 2.621,-5.389 9.808,-6.345 14.548,-8.959 5.314,-2.931 9.033,-7.488 14,-10.737 2.513,-1.644 5.255,-1.322 8,-2.197 4.517,-1.439 8.313,-4.54 13,-5.678 6.802,-1.651 12.877,4.07 18.79,-1.761 4.807,-4.741 6.226,-11.315 9.914,-16.593 2.37,-3.391 5.597,-4.939 6.738,-9.26 1.676,-6.346 -0.057,-12.854 3.013,-18.999 2.114,-4.231 12.32582,-19.41129 3.21482,-19.57729 z"
     id="path911"
     inkscape:connector-curvature="0"
     sodipodi:nodetypes="cccccccccccccccccccccsscccccccccccccccccccccccc" />
  <path
     style="fill:#689536; stroke:none;"
     d="M792 304C792.86 311.1 795.149 319.893 793.276 327C791.907 332.198 787.92 334.531 784.606 338.325C780.919 342.545 778.799 347.853 774.572 351.697C772.544 353.54 769.817 354.078 767.799 355.849C765.629 357.754 764.64 359.63 762 361C762 372.364 758.004 383.934 750.88 393C747.27 397.594 742.024 401.356 738.858 406.17C735.494 411.285 737.707 416.995 732.891 421.711C729.871 424.668 726.045 427.771 722 429.146C719.398 430.03 716.492 429.761 714.015 431.026C710.964 432.584 708.968 435.545 705.911 437.152C701.518 439.461 694.115 440.539 694.282 446.965C694.39 451.134 699.283 454.342 701 458C697.329 457.987 689.222 454.523 686.514 456.661C682.377 459.927 685.777 464.979 685.566 469C685.262 474.805 681.94 480.037 685.174 485.871C686.379 488.043 688.582 489.426 690.219 491.24C692.067 493.287 693.189 495.351 696.104 495.852C702.022 496.868 706.466 494.389 712 493.27C714.554 492.754 717.382 493.103 719.487 491.258C722.54 488.582 722.204 483.819 725.533 481.148C728.962 478.398 732.947 480.006 736.625 478.4C739.093 477.323 740.474 474.762 743.043 473.742C749.313 471.251 756.11 475.972 761.79 474.268C766.002 473.004 765.877 467.114 769.415 465.117C771.637 463.863 774.597 464.984 777 464.856C780.718 464.66 785.304 463.101 788.699 461.579C793.229 459.549 794.56 454.651 797.471 451.044C800.184 447.682 803.875 445.824 808 444.761C813.627 443.31 821.278 443.335 827 444.329C831.095 445.04 834.761 447.552 839 446.167C847.879 443.265 848.58 434.234 856.004 430.14C863.255 426.14 868.966 427.781 873 419C865.365 416.481 862.854 411.738 861.117 404C860.388 400.755 860.121 395.276 857.411 392.985C855.528 391.392 852.286 390.862 850 390.049C844.977 388.265 839.202 385.198 834 384.338C829.968 383.672 825.906 385.973 822.018 383.971C817.618 381.706 815.403 375.911 812.716 372C809.259 366.968 801.109 358.355 809 354C807.839 348.842 805.019 343.388 811.29 340.067C815.938 337.606 820.805 342.161 822 335C826.019 334.359 830.112 332.904 829.794 327.995C829.503 323.494 825.353 319.856 823.374 316C820.016 309.455 818.693 303.031 817 296C814.469 296.163 811.737 295.778 809.282 296.498C803.317 298.248 798.111 302.892 792 304z"
     id="path913" />
  <path
     style="fill:#184c5a; stroke:none;"
     d="M304 322C302.187 323.936 300.541 325.842 299 328.005C298.075 329.303 296.991 330.611 296.208 331.999C294.389 335.229 295.18 340.004 299.989 337.914C304.058 336.145 308.072 329.358 310.681 325.83C311.747 324.389 312.507 322.893 311.824 321.093C309.768 315.679 299.958 315.892 304 322M271.323 338.161C266.545 340.57 272.531 347.468 276.663 344.929C280.928 342.308 274.895 336.36 271.323 338.161z"
     id="path915" />
  <path
     style="fill:#914c2d; stroke:none;"
     d="M278 461C275.802 463.971 274.488 466.325 274 470C277.654 469.984 280.549 472.41 283.925 472.387C287.418 472.364 290.676 468.177 293 466C293.759 471.035 296.83 474.751 297 480C299.071 479.932 301.495 480.138 302.993 478.397C304.44 476.716 304.333 473.339 307.055 472.921C312 472.162 314.482 483.728 320.026 477.679C320.667 476.98 320.95 475.873 321.316 475.025L323 471C326.042 473.787 328.126 481.912 332.109 482.498C335.316 482.969 341.025 481.092 343.077 478.57C344.789 476.467 345.071 473.503 347.394 471.831C350.521 469.58 354.594 471.015 357.242 467.516C360.302 463.473 356.801 460.621 353 460C352.109 453.157 349.226 448.235 342 448C341.515 433.056 325.685 435.614 317.53 427.581C311.931 422.066 314.728 412.94 309.57 407.228C305.454 402.67 299.089 404.964 294.039 402.396C290.097 400.39 287.166 397.084 282.999 395.352C278.722 393.573 274.316 391.485 270 389.888C266.962 388.764 263.928 388.769 261.09 387.011C255.643 383.639 247.36 376.416 240.434 381.178C236.673 383.764 239.441 387.091 241.773 389.335C245.829 393.237 254.809 396.935 255.828 403C256.529 407.173 251.681 410.774 251.257 415C250.675 420.806 255.561 425.315 255.876 431C256.199 436.834 249.326 441.83 251.603 447.624C253.285 451.902 258.481 452.501 261.263 455.559C263.319 457.82 263.082 462.181 266.344 463.338C270.061 464.656 273.886 460.397 278 461M372 496L469 496C465.647 489.204 459.433 491.653 454.39 487.351C442.606 477.301 432.675 463.625 417 458.564C407.916 455.631 398.104 458.408 389 458C388.515 454.892 383.568 447.37 380.152 452.604C378.528 455.093 380.463 457.66 377.837 460.045C374.263 463.29 367.318 464.835 365.086 469.326C363.493 472.533 366.735 475.326 368.002 477.996C369.406 480.953 368.821 483.996 369.44 487.09C370.052 490.146 371.452 492.912 372 496M372 452C372.507 455.344 373.399 456.847 376 459C375.88 455.308 375.687 453.223 372 452M372 462C371.915 460.913 372.056 459.273 371.397 458.278C368.992 454.645 364.724 458.472 368.992 461.102C369.802 461.601 371.165 461.775 372 462z"
     id="path917" />
  <path
     style="fill:#689536; stroke:none;"
     d="M675 490L675 492C679.531 493.816 683.219 493.698 683 488C680.175 488.379 677.667 488.997 675 490M684 496C686.739 495.789 687.422 495.697 688 493C685.868 493.777 685.229 494.13 684 496z"
     id="path919" />
</svg>
